<svg xmlns="http://www.w3.org/2000/svg" xmlns:xlink="http://www.w3.org/1999/xlink" width="500" zoomAndPan="magnify" viewBox="0 0 375 374.999991" height="500" preserveAspectRatio="xMidYMid meet" version="1.0"><defs><g/><clipPath id="e90fe6b282"><path d="M 50 87.050781 L 304 87.050781 L 304 237.800781 L 50 237.800781 Z M 50 87.050781 " clip-rule="nonzero"/></clipPath><clipPath id="5bb42b4de2"><path d="M 125.230469 128.699219 L 228.730469 128.699219 L 228.730469 220.949219 L 125.230469 220.949219 Z M 125.230469 128.699219 " clip-rule="nonzero"/></clipPath></defs><rect x="-37.5" width="450" fill="#ffffff" y="-37.499999" height="449.999989" fill-opacity="1"/><rect x="-37.5" width="450" fill="#ffffff" y="-37.499999" height="449.999989" fill-opacity="1"/><g clip-path="url(#e90fe6b282)"><path fill="#f5f401" d="M 303.621094 199.6875 C 302.910156 190.039062 297.113281 181.726562 288.667969 177.660156 C 295.238281 162.007812 284.695312 143.574219 267.792969 141.460938 C 267.785156 134.042969 264.957031 126.894531 259.1875 121.777344 C 252.953125 116.25 244.496094 114.070312 236.492188 115.691406 C 234.394531 108.695312 229.730469 102.664062 222.855469 99.441406 C 215.125 95.816406 206.773438 96.238281 199.535156 99.910156 C 194.777344 92.128906 186.5 87.050781 176.976562 87.050781 C 167.449219 87.050781 159.167969 92.128906 154.414062 99.910156 C 147.175781 96.242188 138.796875 95.78125 131.09375 99.441406 C 124.226562 102.699219 119.554688 108.6875 117.457031 115.691406 C 109.453125 114.074219 100.996094 116.253906 94.761719 121.777344 C 88.992188 126.894531 86.164062 134.046875 86.160156 141.460938 C 69.253906 143.570312 58.710938 162.003906 65.28125 177.660156 C 57.324219 181.488281 51.609375 189.101562 50.496094 198.121094 C 49.234375 208.398438 54.320312 218.476562 63.054688 223.738281 C 62.800781 226.753906 62.660156 229.785156 62.640625 232.828125 C 62.625 235.375 64.804688 237.53125 67.34375 237.53125 C 86.070312 237.53125 104.808594 237.53125 123.535156 237.53125 C 153.398438 237.53125 183.265625 237.53125 213.128906 237.53125 C 219.992188 237.53125 226.855469 237.53125 233.722656 237.53125 C 239.773438 237.53125 239.78125 228.125 233.722656 228.125 C 214.992188 228.125 196.257812 228.125 177.527344 228.125 C 147.664062 228.125 117.800781 228.125 87.9375 228.125 C 82.683594 228.125 77.433594 228.125 72.175781 228.125 C 74.496094 182.484375 106.789062 142.488281 151.703125 131.621094 C 192.039062 121.859375 235.742188 137.734375 260.164062 171.347656 C 272.25 187.984375 279.09375 207.683594 280.089844 228.125 C 275.394531 228.125 270.695312 228.125 265.996094 228.125 C 259.945312 228.125 259.9375 237.53125 265.996094 237.53125 C 272.304688 237.53125 278.621094 237.53125 284.929688 237.53125 C 287.464844 237.53125 289.644531 235.378906 289.632812 232.828125 C 289.617188 230.050781 289.5 227.289062 289.28125 224.539062 C 298.320312 219.730469 304.398438 210.324219 303.621094 199.6875 Z M 59.769531 199.160156 C 60.664062 191.816406 66.3125 186.398438 73.316406 184.769531 C 73.351562 184.757812 73.386719 184.742188 73.421875 184.734375 C 69.253906 193.671875 66.242188 203.128906 64.484375 212.867188 C 61.023438 209.316406 59.121094 204.496094 59.769531 199.160156 Z M 288 214.332031 C 281.941406 178.792969 259.21875 147.117188 226.289062 131.007812 C 180.765625 108.730469 124.097656 119.742188 90.695312 158.136719 C 85.195312 164.460938 80.457031 171.328125 76.515625 178.597656 C 76.414062 178.34375 76.292969 178.09375 76.125 177.859375 C 67.570312 165.648438 76.328125 149.683594 91.246094 150.714844 C 94.503906 150.9375 96.324219 147.542969 95.78125 144.757812 C 93.011719 130.632812 107.136719 120.984375 119.757812 126.207031 C 122.832031 127.480469 125.476562 124.347656 125.710938 121.671875 C 126.855469 108.496094 142.632812 101.59375 153.03125 109.960938 C 155.851562 112.230469 159.644531 111.441406 160.890625 107.886719 C 166.140625 92.902344 187.808594 92.902344 193.058594 107.886719 C 194.304688 111.445312 198.089844 112.234375 200.917969 109.960938 C 211.316406 101.597656 227.097656 108.5 228.238281 121.671875 C 228.472656 124.34375 231.117188 127.480469 234.191406 126.207031 C 246.8125 120.988281 260.941406 130.636719 258.167969 144.757812 C 257.621094 147.542969 259.441406 150.9375 262.703125 150.714844 C 277.617188 149.683594 286.378906 165.648438 277.824219 177.859375 C 276.105469 180.308594 277.851562 184.121094 280.636719 184.769531 C 287.847656 186.449219 293.539062 192.117188 294.222656 199.6875 C 294.730469 205.398438 292.277344 210.851562 288 214.332031 Z M 288 214.332031 " fill-opacity="1" fill-rule="nonzero"/></g><g clip-path="url(#5bb42b4de2)"><path fill="#fa7a27" d="M 195.398438 188.003906 C 195.765625 188.375 196.050781 188.800781 196.25 189.285156 C 196.453125 189.769531 196.550781 190.273438 196.550781 190.792969 C 196.550781 191.316406 196.453125 191.820312 196.25 192.304688 C 196.050781 192.789062 195.765625 193.214844 195.398438 193.585938 C 194.867188 194.113281 194.292969 194.585938 193.671875 195 C 193.046875 195.414062 192.390625 195.765625 191.699219 196.050781 C 191.011719 196.335938 190.296875 196.550781 189.5625 196.699219 C 188.832031 196.84375 188.089844 196.917969 187.34375 196.917969 C 186.59375 196.917969 185.855469 196.84375 185.121094 196.699219 C 184.386719 196.550781 183.675781 196.335938 182.984375 196.050781 C 182.292969 195.765625 181.636719 195.414062 181.015625 195 C 180.394531 194.585938 179.816406 194.113281 179.289062 193.585938 C 178.957031 193.265625 178.578125 193.019531 178.148438 192.847656 C 177.722656 192.675781 177.277344 192.589844 176.820312 192.589844 C 176.359375 192.589844 175.914062 192.675781 175.488281 192.847656 C 175.0625 193.019531 174.679688 193.265625 174.347656 193.585938 C 170.042969 197.890625 162.546875 197.890625 158.242188 193.585938 C 157.871094 193.214844 157.589844 192.785156 157.390625 192.304688 C 157.191406 191.820312 157.089844 191.316406 157.089844 190.792969 C 157.09375 190.273438 157.191406 189.769531 157.394531 189.285156 C 157.59375 188.804688 157.878906 188.378906 158.25 188.007812 C 158.617188 187.636719 159.042969 187.355469 159.527344 187.152344 C 160.011719 186.953125 160.511719 186.855469 161.035156 186.851562 C 161.558594 186.851562 162.0625 186.953125 162.542969 187.152344 C 163.027344 187.351562 163.453125 187.636719 163.824219 188.003906 C 164.15625 188.324219 164.535156 188.570312 164.964844 188.742188 C 165.390625 188.914062 165.832031 189 166.292969 189 C 166.753906 189 167.199219 188.914062 167.625 188.742188 C 168.050781 188.570312 168.429688 188.324219 168.761719 188.003906 C 170.359375 186.433594 172.261719 185.4375 174.464844 185.019531 L 166.710938 174.691406 C 166.472656 174.371094 166.335938 174.015625 166.300781 173.617188 C 166.265625 173.222656 166.335938 172.84375 166.515625 172.488281 C 166.691406 172.132812 166.953125 171.847656 167.289062 171.640625 C 167.628906 171.429688 167.996094 171.324219 168.394531 171.324219 L 185.230469 171.324219 C 185.628906 171.324219 186 171.429688 186.339844 171.640625 C 186.675781 171.847656 186.9375 172.132812 187.113281 172.488281 C 187.292969 172.84375 187.363281 173.222656 187.328125 173.617188 C 187.292969 174.015625 187.15625 174.371094 186.917969 174.691406 L 179.164062 185.019531 C 181.367188 185.4375 183.265625 186.433594 184.863281 188.003906 C 185.195312 188.324219 185.578125 188.570312 186.003906 188.742188 C 186.429688 188.914062 186.875 189 187.335938 189 C 187.792969 189 188.238281 188.914062 188.664062 188.742188 C 189.09375 188.570312 189.472656 188.324219 189.804688 188.003906 C 189.988281 187.820312 190.1875 187.65625 190.402344 187.511719 C 190.617188 187.367188 190.847656 187.246094 191.085938 187.144531 C 191.328125 187.046875 191.574219 186.972656 191.828125 186.921875 C 192.082031 186.871094 192.339844 186.84375 192.601562 186.84375 C 192.859375 186.84375 193.117188 186.871094 193.371094 186.921875 C 193.628906 186.972656 193.875 187.046875 194.113281 187.144531 C 194.355469 187.246094 194.582031 187.367188 194.796875 187.511719 C 195.015625 187.65625 195.214844 187.820312 195.398438 188.003906 Z M 227.964844 134.03125 L 219.46875 162.929688 C 221.738281 168.488281 222.867188 174.269531 222.859375 180.277344 C 222.859375 204.285156 203.9375 221.050781 176.820312 221.050781 C 149.707031 221.050781 130.78125 204.28125 130.78125 180.277344 C 130.777344 174.269531 131.910156 168.488281 134.183594 162.929688 L 125.679688 134.03125 C 125.472656 133.324219 125.464844 132.617188 125.652344 131.90625 C 125.839844 131.195312 126.195312 130.585938 126.726562 130.074219 C 127.257812 129.570312 127.878906 129.234375 128.59375 129.070312 C 129.308594 128.90625 130.011719 128.9375 130.710938 129.164062 L 157.992188 138.25 C 169.804688 132.914062 183.835938 132.914062 195.648438 138.25 L 222.929688 129.167969 C 223.628906 128.9375 224.335938 128.902344 225.050781 129.066406 C 225.769531 129.230469 226.390625 129.566406 226.917969 130.078125 C 227.445312 130.585938 227.804688 131.199219 227.992188 131.910156 C 228.179688 132.617188 228.171875 133.324219 227.964844 134.03125 Z M 211.496094 162.054688 L 218.261719 139.039062 L 196.640625 146.242188 C 195.609375 146.582031 194.613281 146.511719 193.640625 146.027344 C 183.183594 140.851562 170.457031 140.851562 160 146.027344 C 159.03125 146.503906 158.03125 146.578125 157.003906 146.242188 L 135.378906 139.039062 L 142.144531 162.054688 C 142.417969 162.980469 142.355469 163.886719 141.964844 164.769531 C 139.761719 169.703125 138.664062 174.871094 138.671875 180.277344 C 138.671875 202.992188 157.824219 213.160156 176.820312 213.160156 C 195.816406 213.160156 214.96875 202.988281 214.96875 180.277344 C 214.976562 174.871094 213.878906 169.703125 211.675781 164.769531 C 211.285156 163.886719 211.226562 162.980469 211.496094 162.054688 Z M 211.496094 162.054688 " fill-opacity="1" fill-rule="nonzero"/></g><g fill="#ffa7e4" fill-opacity="1"><g transform="translate(123.216213, 328.227583)"><g><path d="M 19.707031 -14.734375 C 19.289062 -14.734375 18.964844 -14.410156 18.964844 -13.988281 C 18.964844 -12.410156 17.523438 -11.015625 15.894531 -11.015625 C 14.175781 -11.015625 12.828125 -12.410156 12.828125 -13.988281 L 12.828125 -23.191406 C 12.828125 -25.421875 15.199219 -27.191406 17.707031 -25.75 C 18.40625 -25.332031 18.964844 -24.308594 18.964844 -23.472656 L 18.964844 -23.238281 C 18.964844 -22.867188 19.289062 -22.496094 19.707031 -22.496094 L 30.304688 -22.496094 C 30.628906 -22.496094 30.953125 -22.820312 30.953125 -23.191406 L 30.953125 -24.027344 C 30.953125 -31.652344 23.65625 -37.785156 15.894531 -37.785156 C 8.273438 -37.785156 0.789062 -31.652344 0.789062 -24.027344 L 0.789062 -13.523438 C 0.789062 -5.625 8.273438 0.558594 15.894531 0.558594 C 23.65625 0.558594 30.953125 -5.625 30.953125 -13.523438 L 30.953125 -14.082031 C 30.953125 -14.410156 30.628906 -14.734375 30.304688 -14.734375 Z M 19.707031 -14.734375 "/></g></g></g><g fill="#ffa7e4" fill-opacity="1"><g transform="translate(154.958415, 328.227583)"><g><path d="M 35.464844 -3.902344 L 27.5625 -33.976562 C 27.421875 -34.535156 27.28125 -35.371094 26.632812 -36.113281 C 25.933594 -36.8125 25.050781 -36.996094 24.402344 -36.996094 L 12.222656 -36.996094 C 11.527344 -36.996094 10.875 -36.765625 10.410156 -36.390625 C 9.945312 -36.066406 9.433594 -35.507812 9.25 -34.671875 L 0.882812 -3.949219 C 0.511719 -2.464844 1.207031 -0.882812 2.601562 -0.277344 C 2.976562 -0.09375 3.347656 -0.046875 3.8125 -0.046875 L 10.132812 -0.046875 C 11.851562 -0.046875 12.550781 -1.117188 13.246094 -2.882812 L 14.59375 -6.507812 L 21.707031 -6.507812 L 23.101562 -2.882812 C 23.796875 -1.117188 24.492188 0 26.214844 0 L 32.535156 0 C 33.046875 0 33.558594 -0.140625 33.929688 -0.371094 C 35.183594 -1.023438 35.789062 -2.511719 35.464844 -3.902344 Z M 20.359375 -17.242188 L 16.035156 -17.242188 C 15.570312 -17.242188 15.199219 -17.660156 15.429688 -18.125 L 16.640625 -21.285156 L 17.570312 -23.703125 C 17.753906 -24.308594 18.589844 -24.308594 18.777344 -23.703125 L 19.753906 -21.285156 L 20.960938 -18.125 C 21.101562 -17.660156 20.777344 -17.242188 20.359375 -17.242188 Z M 20.359375 -17.242188 "/></g></g></g><g fill="#ffa7e4" fill-opacity="1"><g transform="translate(191.30161, 328.227583)"><g><path d="M 31.140625 -37.183594 L 4.789062 -37.183594 C 3.019531 -37.183594 1.535156 -35.742188 1.535156 -33.929688 L 1.535156 -27.5625 C 1.535156 -25.796875 3.019531 -24.308594 4.789062 -24.308594 L 11.203125 -24.308594 C 11.386719 -24.308594 11.527344 -24.121094 11.527344 -23.984375 L 11.527344 -3.160156 C 11.527344 -1.394531 12.96875 0.09375 14.828125 0.09375 L 21.148438 0.09375 C 22.914062 0.09375 24.402344 -1.394531 24.402344 -3.160156 L 24.402344 -23.984375 C 24.402344 -24.121094 24.585938 -24.308594 24.773438 -24.308594 L 31.140625 -24.308594 C 32.90625 -24.308594 34.394531 -25.796875 34.394531 -27.5625 L 34.394531 -33.929688 C 34.394531 -35.742188 32.90625 -37.183594 31.140625 -37.183594 Z M 31.140625 -37.183594 "/></g></g></g><path stroke-linecap="butt" transform="matrix(0.242529, 0, 0, 0.242529, 37.784281, 289.959502)" fill="none" stroke-linejoin="miter" d="M 440.108608 92.26288 C 438.385232 92.26288 437.032302 93.583597 437.032302 95.306973 C 437.032302 101.813923 431.089073 107.563877 424.388847 107.563877 C 417.285963 107.563877 411.713178 101.813923 411.713178 95.306973 L 411.713178 57.3605 C 411.713178 48.147689 421.48971 40.899848 431.878282 46.843077 C 434.729099 48.566453 437.032302 52.786307 437.032302 56.249164 L 437.032302 57.18333 C 437.032302 58.729536 438.385232 60.275742 440.108608 60.275742 L 483.805034 60.275742 C 485.125752 60.275742 486.478682 58.906706 486.478682 57.3605 L 486.478682 53.897642 C 486.478682 22.506439 456.39209 -2.796579 424.388847 -2.796579 C 392.949324 -2.796579 362.121841 22.506439 362.121841 53.897642 L 362.121841 97.223624 C 362.121841 129.790588 392.949324 155.286882 424.388847 155.286882 C 456.39209 155.286882 486.478682 129.790588 486.478682 97.223624 L 486.478682 94.936528 C 486.478682 93.583597 485.125752 92.26288 483.805034 92.26288 Z M 635.929159 136.909579 L 603.362194 12.923183 C 602.81458 10.61998 602.20254 7.157123 599.528892 4.080817 C 596.678075 1.23 593.021942 0.473003 590.316081 0.473003 L 540.112704 0.473003 C 537.261887 0.473003 534.53992 1.407169 532.671588 2.953375 C 530.754936 4.306305 528.59669 6.609508 527.8558 10.024046 L 493.372184 136.716303 C 491.825978 142.852808 494.676796 149.343652 500.442856 151.824024 C 501.989062 152.62934 503.519161 152.806509 505.451919 152.806509 L 531.511933 152.806509 C 538.566498 152.806509 541.465634 148.409486 544.316452 141.113326 L 549.889236 126.198881 L 579.234938 126.198881 L 584.984891 141.113326 C 587.835709 148.409486 590.734845 152.999785 597.805516 152.999785 L 623.865531 152.999785 C 625.975458 152.999785 628.069278 152.436064 629.615484 151.453579 C 634.817823 148.796038 637.298195 142.659532 635.929159 136.909579 Z M 573.662154 81.890414 L 555.832465 81.890414 C 553.915814 81.890414 552.369608 80.199251 553.352093 78.2826 L 558.312837 65.22038 L 562.14614 55.266679 C 562.951456 52.786307 566.365994 52.786307 567.155203 55.266679 L 571.181781 65.22038 L 576.142526 78.2826 C 576.754566 80.199251 575.385529 81.890414 573.662154 81.890414 Z M 767.952605 -0.316206 L 659.315525 -0.316206 C 652.019365 -0.316206 645.88286 5.627023 645.88286 13.100352 L 645.88286 39.353642 C 645.88286 46.649802 652.019365 52.786307 659.315525 52.786307 L 685.745984 52.786307 C 686.5513 52.786307 687.115021 53.527197 687.115021 54.090918 L 687.115021 139.953672 C 687.115021 147.249831 693.05825 153.37023 700.724855 153.37023 L 726.784869 153.37023 C 734.03271 153.37023 740.169215 147.249831 740.169215 139.953672 L 740.169215 54.090918 C 740.169215 53.527197 740.958425 52.786307 741.715421 52.786307 L 767.952605 52.786307 C 775.264871 52.786307 781.38527 46.649802 781.38527 39.353642 L 781.38527 13.100352 C 781.38527 5.627023 775.264871 -0.316206 767.952605 -0.316206 Z M 767.952605 -0.316206 " stroke="#ff66c4" stroke-width="3.114264" stroke-opacity="1" stroke-miterlimit="4"/><g fill="#5ce1e6" fill-opacity="1"><g transform="translate(107.277502, 282.754822)"><g><path d="M 31.140625 -37.183594 L 4.789062 -37.183594 C 3.019531 -37.183594 1.535156 -35.742188 1.535156 -33.929688 L 1.535156 -27.5625 C 1.535156 -25.796875 3.019531 -24.308594 4.789062 -24.308594 L 11.203125 -24.308594 C 11.386719 -24.308594 11.527344 -24.121094 11.527344 -23.984375 L 11.527344 -3.160156 C 11.527344 -1.394531 12.96875 0.09375 14.828125 0.09375 L 21.148438 0.09375 C 22.914062 0.09375 24.402344 -1.394531 24.402344 -3.160156 L 24.402344 -23.984375 C 24.402344 -24.121094 24.585938 -24.308594 24.773438 -24.308594 L 31.140625 -24.308594 C 32.90625 -24.308594 34.394531 -25.796875 34.394531 -27.5625 L 34.394531 -33.929688 C 34.394531 -35.742188 32.90625 -37.183594 31.140625 -37.183594 Z M 31.140625 -37.183594 "/></g></g></g><g fill="#5ce1e6" fill-opacity="1"><g transform="translate(143.202425, 282.754822)"><g><path d="M 35.464844 -3.902344 L 27.5625 -33.976562 C 27.421875 -34.535156 27.28125 -35.371094 26.632812 -36.113281 C 25.933594 -36.8125 25.050781 -36.996094 24.402344 -36.996094 L 12.222656 -36.996094 C 11.527344 -36.996094 10.875 -36.765625 10.410156 -36.390625 C 9.945312 -36.066406 9.433594 -35.507812 9.25 -34.671875 L 0.882812 -3.949219 C 0.511719 -2.464844 1.207031 -0.882812 2.601562 -0.277344 C 2.976562 -0.09375 3.347656 -0.046875 3.8125 -0.046875 L 10.132812 -0.046875 C 11.851562 -0.046875 12.550781 -1.117188 13.246094 -2.882812 L 14.59375 -6.507812 L 21.707031 -6.507812 L 23.101562 -2.882812 C 23.796875 -1.117188 24.492188 0 26.214844 0 L 32.535156 0 C 33.046875 0 33.558594 -0.140625 33.929688 -0.371094 C 35.183594 -1.023438 35.789062 -2.511719 35.464844 -3.902344 Z M 20.359375 -17.242188 L 16.035156 -17.242188 C 15.570312 -17.242188 15.199219 -17.660156 15.429688 -18.125 L 16.640625 -21.285156 L 17.570312 -23.703125 C 17.753906 -24.308594 18.589844 -24.308594 18.777344 -23.703125 L 19.753906 -21.285156 L 20.960938 -18.125 C 21.101562 -17.660156 20.777344 -17.242188 20.359375 -17.242188 Z M 20.359375 -17.242188 "/></g></g></g><g fill="#5ce1e6" fill-opacity="1"><g transform="translate(179.545616, 282.754822)"><g><path d="M 19.707031 -14.734375 C 19.289062 -14.734375 18.964844 -14.410156 18.964844 -13.988281 C 18.964844 -12.410156 17.523438 -11.015625 15.894531 -11.015625 C 14.175781 -11.015625 12.828125 -12.410156 12.828125 -13.988281 L 12.828125 -23.191406 C 12.828125 -25.421875 15.199219 -27.191406 17.707031 -25.75 C 18.40625 -25.332031 18.964844 -24.308594 18.964844 -23.472656 L 18.964844 -23.238281 C 18.964844 -22.867188 19.289062 -22.496094 19.707031 -22.496094 L 30.304688 -22.496094 C 30.628906 -22.496094 30.953125 -22.820312 30.953125 -23.191406 L 30.953125 -24.027344 C 30.953125 -31.652344 23.65625 -37.785156 15.894531 -37.785156 C 8.273438 -37.785156 0.789062 -31.652344 0.789062 -24.027344 L 0.789062 -13.523438 C 0.789062 -5.625 8.273438 0.558594 15.894531 0.558594 C 23.65625 0.558594 30.953125 -5.625 30.953125 -13.523438 L 30.953125 -14.082031 C 30.953125 -14.410156 30.628906 -14.734375 30.304688 -14.734375 Z M 19.707031 -14.734375 "/></g></g></g><g fill="#5ce1e6" fill-opacity="1"><g transform="translate(211.287815, 282.754822)"><g><path d="M 15.941406 -37.742188 C 8.320312 -37.742188 0.789062 -31.605469 0.789062 -23.9375 L 0.789062 -13.339844 C 0.789062 -5.390625 8.320312 0.789062 15.941406 0.789062 C 23.75 0.789062 31.09375 -5.390625 31.09375 -13.339844 L 31.09375 -23.9375 C 31.09375 -31.605469 23.75 -37.742188 15.941406 -37.742188 Z M 19.054688 -13.804688 C 19.054688 -12.222656 17.617188 -10.828125 15.941406 -10.828125 C 14.222656 -10.828125 12.875 -12.222656 12.875 -13.804688 L 12.875 -23.101562 C 12.875 -24.773438 14.222656 -26.167969 15.941406 -26.167969 C 17.617188 -26.167969 19.054688 -24.773438 19.054688 -23.101562 Z M 19.054688 -13.804688 "/></g></g></g><path stroke-linecap="butt" transform="matrix(0.242529, 0, 0, 0.242529, 37.784281, 244.486758)" fill="none" stroke-linejoin="miter" d="M 421.505817 -0.315844 L 312.868737 -0.315844 C 305.572577 -0.315844 299.436072 5.627386 299.436072 13.100715 L 299.436072 39.354005 C 299.436072 46.650164 305.572577 52.78667 312.868737 52.78667 L 339.299196 52.78667 C 340.104512 52.78667 340.668233 53.52756 340.668233 54.091281 L 340.668233 139.954034 C 340.668233 147.250194 346.595356 153.370593 354.278067 153.370593 L 380.338081 153.370593 C 387.585922 153.370593 393.722427 147.250194 393.722427 139.954034 L 393.722427 54.091281 C 393.722427 53.52756 394.511636 52.78667 395.268633 52.78667 L 421.505817 52.78667 C 428.801976 52.78667 434.938481 46.650164 434.938481 39.354005 L 434.938481 13.100715 C 434.938481 5.627386 428.801976 -0.315844 421.505817 -0.315844 Z M 587.465264 136.909941 L 554.898299 12.923545 C 554.334578 10.620343 553.722538 7.157485 551.064997 4.08118 C 548.214179 1.230362 544.558046 0.473366 541.83608 0.473366 L 491.648809 0.473366 C 488.781885 0.473366 486.076025 1.407532 484.207692 2.953738 C 482.291041 4.306668 480.132795 6.609871 479.375798 10.024409 L 444.908289 136.716666 C 443.362083 142.853171 446.2129 149.344015 451.962854 151.824387 C 453.50906 152.629703 455.055266 152.806872 456.971917 152.806872 L 483.031931 152.806872 C 490.102603 152.806872 493.001739 148.409849 495.852556 141.113689 L 501.425341 126.183137 L 530.754936 126.183137 L 536.50489 141.113689 C 539.371814 148.409849 542.27095 153.000148 549.325515 153.000148 L 575.385529 153.000148 C 577.495456 153.000148 579.605383 152.436427 581.151589 151.453942 C 586.337822 148.7964 588.818194 142.659895 587.465264 136.909941 Z M 525.182152 81.890777 L 507.36857 81.890777 C 505.435813 81.890777 503.905713 80.199614 504.888198 78.282963 L 509.848942 65.220743 L 513.682245 55.267042 C 514.471454 52.78667 517.885992 52.78667 518.691308 55.267042 L 522.70178 65.220743 L 527.662524 78.282963 C 528.274564 80.199614 526.921634 81.890777 525.182152 81.890777 Z M 672.377745 92.263242 C 670.638263 92.263242 669.285333 93.58396 669.285333 95.307335 C 669.285333 101.814286 663.342103 107.564239 656.657983 107.564239 C 649.538993 107.564239 643.966209 101.814286 643.966209 95.307335 L 643.966209 57.360862 C 643.966209 48.148052 653.742741 40.900211 664.131313 46.84344 C 666.998236 48.566816 669.285333 52.78667 669.285333 56.249527 L 669.285333 57.183693 C 669.285333 58.729899 670.638263 60.259999 672.377745 60.259999 L 716.074171 60.259999 C 717.378783 60.259999 718.731713 58.907068 718.731713 57.360862 L 718.731713 53.898005 C 718.731713 22.506802 688.661227 -2.796216 656.657983 -2.796216 C 625.202355 -2.796216 594.374872 22.506802 594.374872 53.898005 L 594.374872 97.223987 C 594.374872 129.790951 625.202355 155.287244 656.657983 155.287244 C 688.661227 155.287244 718.731713 129.790951 718.731713 97.223987 L 718.731713 94.93689 C 718.731713 93.58396 717.378783 92.263242 716.074171 92.263242 Z M 787.715051 -2.619046 C 756.275528 -2.619046 725.25477 22.700077 725.25477 54.332876 L 725.25477 97.980983 C 725.25477 130.773436 756.275528 156.269729 787.715051 156.269729 C 819.91157 156.269729 850.175332 130.773436 850.175332 97.980983 L 850.175332 54.332876 C 850.175332 22.700077 819.91157 -2.619046 787.715051 -2.619046 Z M 800.535676 96.064332 C 800.535676 102.603495 794.592446 108.369555 787.715051 108.369555 C 780.612167 108.369555 775.087701 102.603495 775.087701 96.064332 L 775.087701 57.747414 C 775.087701 50.870018 780.612167 45.103958 787.715051 45.103958 C 794.592446 45.103958 800.535676 50.870018 800.535676 57.747414 Z M 800.535676 96.064332 " stroke="#b2edef" stroke-width="3.114264" stroke-opacity="1" stroke-miterlimit="4"/></svg>